<svg width="24" height="24" viewBox="0 0 24 24" fill="none" xmlns="http://www.w3.org/2000/svg">
<rect width="24" height="24" fill="white"/>
<g clip-path="url(#clip0_0_1)">
<rect width="1440" height="1024" transform="translate(-64 -155)" fill="white"/>
<g filter="url(#filter0_d_0_1)">
<rect x="-17" y="-19" width="216" height="60" fill="white"/>
<rect x="-16" y="-18" width="214" height="58" stroke="black" stroke-width="2"/>
</g>
<g clip-path="url(#clip1_0_1)">
<path fill-rule="evenodd" clip-rule="evenodd" d="M16.6954 1.45714C17.0091 0.0257106 19.0509 0.0171392 19.3766 1.44857L19.3937 1.51714L19.4229 1.64914C19.8 3.25028 21.0943 4.47428 22.7177 4.75543C24.2126 5.016 24.2126 7.16228 22.7177 7.42285C21.9203 7.56165 21.1816 7.93298 20.5945 8.49021C20.0073 9.04744 19.598 9.76572 19.4177 10.5549L19.3766 10.7314C19.0509 12.1611 17.0109 12.1543 16.6954 10.7194L16.6611 10.5686C16.4879 9.77688 16.0828 9.05472 15.4975 8.49417C14.9122 7.93362 14.1733 7.56006 13.3749 7.42114C11.8834 7.16057 11.8834 5.01771 13.3749 4.75885C14.1712 4.62058 14.9085 4.24891 15.4932 3.691C16.078 3.13309 16.4839 2.41407 16.6594 1.62514L16.6834 1.51542L16.6954 1.45714ZM14.8423 10.968C14.7491 10.5398 14.5312 10.1488 14.216 9.84431C13.9009 9.53982 13.5026 9.33551 13.0714 9.25714V21.6257C13.6378 22.3584 14.3916 22.9244 15.2532 23.264C16.1148 23.6035 17.0521 23.704 17.9661 23.5547C18.88 23.4054 19.7367 23.0119 20.4454 22.4159C21.1542 21.8199 21.6888 21.0434 21.9926 20.1686C21.5361 20.1236 21.0875 20.0181 20.6589 19.8549C19.6389 19.4709 18.5297 18.7149 17.6194 17.3931C17.4583 17.159 17.3967 16.8704 17.4483 16.5909C17.4999 16.3113 17.6604 16.0637 17.8946 15.9026C18.1287 15.7414 18.4173 15.6798 18.6968 15.7314C18.9764 15.783 19.224 15.9436 19.3851 16.1777C20.04 17.1291 20.7909 17.616 21.4131 17.8491C21.7286 17.9691 22.0097 18.0206 22.2291 18.0377L22.2686 18.0411C23.3314 16.8857 24 14.6503 24 12.7834C24 11.5251 23.6966 10.284 23.172 9.23143L23.0366 9.25714C22.1451 9.41143 21.4354 10.0869 21.2349 10.968L21.1937 11.1429C20.4257 14.5149 15.6137 14.4943 14.8749 11.1154L14.8406 10.9663L14.8423 10.968ZM10.9286 7.91143C10.5782 7.3679 10.3919 6.73494 10.3919 6.08828C10.3919 5.44163 10.5782 4.80867 10.9286 4.26514V3.37371C10.3333 2.67402 9.53765 2.17386 8.64906 1.94076C7.76048 1.70767 6.82177 1.75286 5.95969 2.07026C5.09761 2.38765 4.3537 2.96194 3.8284 3.71558C3.30311 4.46923 3.02174 5.36592 3.02229 6.28457V6.288C3.08914 6.95657 3.36171 7.45371 3.67714 7.81371C4.06971 8.26114 4.48286 8.44457 4.58057 8.46514C4.7179 8.49632 4.84774 8.55424 4.96268 8.6356C5.07762 8.71696 5.17541 8.82016 5.25046 8.93931C5.32552 9.05846 5.37637 9.19123 5.40012 9.33003C5.42386 9.46884 5.42004 9.61096 5.38886 9.74828C5.35768 9.88561 5.29976 10.0154 5.2184 10.1304C5.13704 10.2453 5.03384 10.3431 4.91469 10.4182C4.79554 10.4932 4.66277 10.5441 4.52397 10.5678C4.38516 10.5916 4.24304 10.5877 4.10571 10.5566C3.48857 10.4143 2.7 9.948 2.06571 9.228C1.8087 8.93459 1.58823 8.61108 1.40914 8.26457C0.534857 9.47314 0 11.1137 0 12.7834C0 14.0434 0.305143 15.4714 0.828 16.62C0.965143 16.4657 1.11429 16.3251 1.27371 16.2017C1.38319 16.1071 1.51069 16.0357 1.64851 15.9917C1.78634 15.9478 1.93165 15.9322 2.07567 15.9459C2.21969 15.9596 2.35944 16.0023 2.48649 16.0715C2.61355 16.1407 2.72528 16.2349 2.81495 16.3484C2.90461 16.462 2.97036 16.5925 3.00822 16.7321C3.04608 16.8717 3.05527 17.0176 3.03524 17.1609C3.01521 17.3041 2.96637 17.4419 2.89166 17.5658C2.81696 17.6896 2.71794 17.7971 2.60057 17.8817C2.29543 18.1234 1.97657 18.6429 1.78114 19.2446C1.92999 20.2406 2.36832 21.171 3.04163 21.92C3.71493 22.669 4.59353 23.2035 5.56818 23.4573C6.54283 23.711 7.57056 23.6726 8.5236 23.347C9.47664 23.0213 10.313 22.4228 10.9286 21.6257V15.3343C10.239 15.8934 9.40265 16.2417 8.52 16.3371C8.38009 16.3528 8.23846 16.3407 8.10321 16.3016C7.96796 16.2625 7.84173 16.1972 7.73173 16.1093C7.62173 16.0215 7.53012 15.9128 7.46212 15.7895C7.39413 15.6662 7.35107 15.5308 7.33543 15.3909C7.31978 15.2509 7.33185 15.1093 7.37094 14.9741C7.41002 14.8388 7.47537 14.7126 7.56324 14.6026C7.65111 14.4926 7.75979 14.401 7.88306 14.333C8.00634 14.265 8.1418 14.2219 8.28171 14.2063C9.15429 14.1103 9.78857 13.608 10.2411 12.948C10.7006 12.2794 10.8994 11.5457 10.9286 11.1943V7.91143Z" fill="black"/>
</g>
</g>
<defs>
<filter id="filter0_d_0_1" x="-17" y="-19" width="220" height="64" filterUnits="userSpaceOnUse" color-interpolation-filters="sRGB">
<feFlood flood-opacity="0" result="BackgroundImageFix"/>
<feColorMatrix in="SourceAlpha" type="matrix" values="0 0 0 0 0 0 0 0 0 0 0 0 0 0 0 0 0 0 127 0" result="hardAlpha"/>
<feOffset dx="4" dy="4"/>
<feComposite in2="hardAlpha" operator="out"/>
<feColorMatrix type="matrix" values="0 0 0 0 0 0 0 0 0 0 0 0 0 0 0 0 0 0 1 0"/>
<feBlend mode="normal" in2="BackgroundImageFix" result="effect1_dropShadow_0_1"/>
<feBlend mode="normal" in="SourceGraphic" in2="effect1_dropShadow_0_1" result="shape"/>
</filter>
<clipPath id="clip0_0_1">
<rect width="1440" height="1024" fill="white" transform="translate(-64 -155)"/>
</clipPath>
<clipPath id="clip1_0_1">
<rect width="24" height="24" fill="white"/>
</clipPath>
</defs>
</svg>
