<svg width="24" height="24" viewBox="0 0 24 24" fill="none" xmlns="http://www.w3.org/2000/svg">
<rect width="24" height="24" fill="white"/>
<g clip-path="url(#clip0_0_1)">
<rect width="1440" height="1024" transform="translate(-830 -161)" fill="white"/>
<g filter="url(#filter0_d_0_1)">
<rect x="-17" y="-19" width="216" height="60" fill="white"/>
<rect x="-16" y="-18" width="214" height="58" stroke="black" stroke-width="2"/>
</g>
<path d="M12 0.855957L22 6.41196V17.588L12 23.144L2 17.588V6.41196L12 0.855957ZM4 8.89596V16.411L11 20.301V12.602L4 8.89596ZM13 20.3L20 16.411V8.89696L13 12.603V20.3ZM12 10.868L19.12 7.09996L12 3.14396L4.88 7.09896L12 10.87V10.868Z" fill="black"/>
</g>
<defs>
<filter id="filter0_d_0_1" x="-17" y="-19" width="220" height="64" filterUnits="userSpaceOnUse" color-interpolation-filters="sRGB">
<feFlood flood-opacity="0" result="BackgroundImageFix"/>
<feColorMatrix in="SourceAlpha" type="matrix" values="0 0 0 0 0 0 0 0 0 0 0 0 0 0 0 0 0 0 127 0" result="hardAlpha"/>
<feOffset dx="4" dy="4"/>
<feComposite in2="hardAlpha" operator="out"/>
<feColorMatrix type="matrix" values="0 0 0 0 0 0 0 0 0 0 0 0 0 0 0 0 0 0 1 0"/>
<feBlend mode="normal" in2="BackgroundImageFix" result="effect1_dropShadow_0_1"/>
<feBlend mode="normal" in="SourceGraphic" in2="effect1_dropShadow_0_1" result="shape"/>
</filter>
<clipPath id="clip0_0_1">
<rect width="1440" height="1024" fill="white" transform="translate(-830 -161)"/>
</clipPath>
</defs>
</svg>
