<svg width="34" height="34" viewBox="0 0 34 34" fill="none" xmlns="http://www.w3.org/2000/svg">
<g filter="url(#filter0_d_56_133)">
<rect width="32" height="32" fill="white"/>
<rect x="1" y="1" width="30" height="30" stroke="black" stroke-width="2"/>
<g clip-path="url(#clip0_56_133)">
<path d="M13 14H14V15H13V14ZM17 14H18V15H17V14ZM20.6641 19C20.8464 19 21.0182 19.0339 21.1797 19.1016C21.3411 19.1693 21.4818 19.2657 21.6016 19.3907C21.7214 19.5157 21.8177 19.6589 21.8906 19.8204C21.9635 19.9818 22 20.1537 22 20.336V24H21V20.336C21 20.2422 20.9688 20.1641 20.9062 20.1016C20.8438 20.0391 20.763 20.0052 20.6641 20H10.3359C10.2422 20 10.1641 20.0313 10.1016 20.0938C10.0391 20.1563 10.0052 20.237 10 20.336V24H9V20.336C9 20.1537 9.03385 19.9818 9.10156 19.8204C9.16927 19.6589 9.26562 19.5183 9.39062 19.3985C9.51562 19.2787 9.65625 19.1823 9.8125 19.1094C9.96875 19.0365 10.1432 19 10.3359 19H13V18H12.3359C12.1536 18 11.9818 17.9662 11.8203 17.8985C11.6589 17.8308 11.5156 17.7344 11.3906 17.6094C11.2656 17.4844 11.1719 17.3438 11.1094 17.1875C11.0469 17.0313 11.0104 16.8568 11 16.6641V16H10V14H11V13.336C11 13.1537 11.0339 12.9818 11.1016 12.8204C11.1693 12.6589 11.2656 12.5183 11.3906 12.3985C11.5156 12.2787 11.6562 12.1823 11.8125 12.1094C11.9688 12.0365 12.1432 12 12.3359 12H15V10.3672C14.849 10.2787 14.7292 10.1563 14.6406 10C14.5521 9.84379 14.5052 9.67712 14.5 9.50004C14.5 9.35942 14.526 9.22921 14.5781 9.10942C14.6302 8.98962 14.7005 8.88546 14.7891 8.79692C14.8776 8.70837 14.9844 8.63546 15.1094 8.57817C15.2344 8.52087 15.3646 8.49483 15.5 8.50004C15.6406 8.50004 15.7708 8.52608 15.8906 8.57817C16.0104 8.63025 16.1146 8.70056 16.2031 8.7891C16.2917 8.87764 16.3646 8.98442 16.4219 9.10942C16.4792 9.23442 16.5052 9.36462 16.5 9.50004C16.5 9.67712 16.4557 9.84379 16.3672 10C16.2786 10.1563 16.1562 10.2787 16 10.3672V12H18.6641C18.8464 12 19.0182 12.0339 19.1797 12.1016C19.3411 12.1693 19.4818 12.2657 19.6016 12.3907C19.7214 12.5157 19.8177 12.6589 19.8906 12.8204C19.9635 12.9818 20 13.1537 20 13.336V14H21V16H20V16.6641C20 16.8464 19.9661 17.0183 19.8984 17.1797C19.8307 17.3412 19.7344 17.4844 19.6094 17.6094C19.4844 17.7344 19.3411 17.8282 19.1797 17.8907C19.0182 17.9532 18.8464 17.9896 18.6641 18H18V19H20.6641ZM12 16.6641C12 16.7579 12.0312 16.836 12.0938 16.8985C12.1562 16.961 12.237 16.9948 12.3359 17H18.6641C18.7578 17 18.8359 16.9688 18.8984 16.9063C18.9609 16.8438 18.9948 16.7631 19 16.6641V13.336C19 13.2422 18.9688 13.1641 18.9062 13.1016C18.8438 13.0391 18.763 13.0052 18.6641 13H12.3359C12.2422 13 12.1641 13.0313 12.1016 13.0938C12.0391 13.1563 12.0052 13.237 12 13.336V16.6641ZM14 19H17V18H14V19Z" fill="black"/>
</g>
</g>
<defs>
<filter id="filter0_d_56_133" x="0" y="0" width="34" height="34" filterUnits="userSpaceOnUse" color-interpolation-filters="sRGB">
<feFlood flood-opacity="0" result="BackgroundImageFix"/>
<feColorMatrix in="SourceAlpha" type="matrix" values="0 0 0 0 0 0 0 0 0 0 0 0 0 0 0 0 0 0 127 0" result="hardAlpha"/>
<feOffset dx="2" dy="2"/>
<feComposite in2="hardAlpha" operator="out"/>
<feColorMatrix type="matrix" values="0 0 0 0 0 0 0 0 0 0 0 0 0 0 0 0 0 0 1 0"/>
<feBlend mode="normal" in2="BackgroundImageFix" result="effect1_dropShadow_56_133"/>
<feBlend mode="normal" in="SourceGraphic" in2="effect1_dropShadow_56_133" result="shape"/>
</filter>
<clipPath id="clip0_56_133">
<rect width="16" height="16" fill="white" transform="translate(8 8)"/>
</clipPath>
</defs>
</svg>
