<svg width="131" height="52" viewBox="0 0 131 52" fill="none" xmlns="http://www.w3.org/2000/svg">
<rect width="131" height="52" fill="white"/>
<g clip-path="url(#clip0_0_1)">
<rect width="1440" height="1024" transform="translate(-139 -49)" fill="white"/>
<path d="M111.927 9.10889C113.193 9.62941 114.302 10.0849 115.41 10.5403C120.001 12.4923 124.196 14.9648 127.362 18.4132C131.716 23.0329 132.191 28.2381 128.629 33.3783C126.808 36.046 124.275 38.1281 121.347 39.9499C115.568 43.4634 109.077 45.6756 102.27 47.4324C92.2961 49.97 82.0849 51.3363 71.7153 51.7918C60.4751 52.3123 49.314 51.8569 38.1529 50.4254C30.0789 49.4494 22.0841 47.8879 14.5642 45.025C11.6354 43.9189 8.70661 42.4874 6.1736 40.7957C-0.396407 36.3062 -1.82123 29.3442 2.37408 23.163C4.43215 20.1049 7.36095 17.5674 10.6064 15.3552C18.3637 10.0849 27.3084 6.76654 36.8072 4.35912C49.8681 1.04078 63.1664 -0.325592 76.7814 0.0648001C85.8052 0.325062 94.8291 1.04078 103.536 3.12287C106.148 3.70846 108.602 4.61938 111.135 5.40016C111.769 5.59536 112.323 5.92069 112.877 6.24601C114.302 7.15693 114.222 7.93771 112.639 8.78356C112.481 8.91369 112.244 8.97876 111.927 9.10889ZM73.1402 3.31807C73.1402 3.253 73.1402 3.18794 73.1402 3.12287C72.6652 3.12287 72.1111 3.05781 71.6362 3.05781C60.6334 3.12287 49.7889 4.42418 39.1819 7.0268C29.9998 9.23902 21.2134 12.3622 13.6935 17.3722C10.6855 19.3892 7.91504 21.6014 5.93613 24.3993C2.29492 29.6045 3.48227 35.2652 9.18155 38.9088C11.3188 40.2752 13.6935 41.3813 16.1473 42.2922C22.7965 44.8298 29.8414 46.1962 36.9655 47.2372C47.2559 48.7337 57.6254 49.1241 67.995 48.9289C80.1851 48.6687 92.2169 47.1071 103.774 43.8538C109.236 42.2922 114.46 40.4053 119.13 37.6075C121.98 35.8508 124.434 33.7687 126.017 31.101C127.758 28.108 127.917 25.0499 125.858 22.122C125.067 21.0159 124.038 19.9097 123.009 18.9988C119.605 16.0058 115.489 13.9237 110.898 12.2971C105.199 10.2801 99.341 8.78356 93.246 7.80758C85.172 6.44121 77.0188 5.79055 68.8657 7.15693C68.4699 7.22199 67.9158 7.35212 67.5992 7.22199C67.0451 6.96173 66.3327 6.63641 66.1744 6.24601C66.016 5.85562 66.491 5.20497 66.8868 4.87964C67.3617 4.55431 68.0741 4.42418 68.7074 4.29405C70.2114 3.83859 71.6362 3.57833 73.1402 3.31807ZM98.4703 5.40016C102.349 6.44121 106.148 7.41719 110.027 8.45824C106.465 6.57134 102.586 5.79055 98.4703 5.40016Z" fill="black"/>
</g>
<defs>
<clipPath id="clip0_0_1">
<rect width="1440" height="1024" fill="white" transform="translate(-139 -49)"/>
</clipPath>
</defs>
</svg>
