<svg width="20" height="20" viewBox="0 0 20 20" fill="none" xmlns="http://www.w3.org/2000/svg">
<path d="M1.25 3.4375C1.25 2.23 2.23 1.25 3.4375 1.25H16.5625C17.77 1.25 18.75 2.23 18.75 3.4375V12.8125C18.75 13.3927 18.5195 13.9491 18.1093 14.3593C17.6991 14.7695 17.1427 15 16.5625 15H11.325L8.10875 18.2162C7.85381 18.4702 7.5294 18.643 7.1764 18.7129C6.8234 18.7828 6.45761 18.7466 6.12514 18.6089C5.79268 18.4712 5.50841 18.2382 5.30818 17.9392C5.10795 17.6402 5.00072 17.2886 5 16.9288V15H3.4375C2.85734 15 2.30094 14.7695 1.8907 14.3593C1.48047 13.9491 1.25 13.3927 1.25 12.8125V3.4375ZM3.4375 3.125C3.35462 3.125 3.27513 3.15792 3.21653 3.21653C3.15792 3.27513 3.125 3.35462 3.125 3.4375V12.8125C3.125 12.985 3.265 13.125 3.4375 13.125H5.9375C6.18614 13.125 6.4246 13.2238 6.60041 13.3996C6.77623 13.5754 6.875 13.8139 6.875 14.0625V16.8L10.275 13.4C10.3619 13.3129 10.4652 13.2437 10.5789 13.1965C10.6925 13.1493 10.8144 13.125 10.9375 13.125H16.5625C16.6454 13.125 16.7249 13.0921 16.7835 13.0335C16.8421 12.9749 16.875 12.8954 16.875 12.8125V3.4375C16.875 3.35462 16.8421 3.27513 16.7835 3.21653C16.7249 3.15792 16.6454 3.125 16.5625 3.125H3.4375Z" fill="black"/>
</svg>
