<svg width="24" height="24" viewBox="0 0 24 24" fill="none" xmlns="http://www.w3.org/2000/svg">
<rect width="24" height="24" fill="white"/>
<g clip-path="url(#clip0_0_1)">
<rect width="1440" height="1024" transform="translate(-579 -159)" fill="white"/>
<g filter="url(#filter0_d_0_1)">
<rect x="-17" y="-19" width="216" height="60" fill="white"/>
<rect x="-16" y="-18" width="214" height="58" stroke="black" stroke-width="2"/>
</g>
<path d="M6 16.5L3 19.44V11H6M11 14.66L9.43 13.32L8 14.64V7H11M16 13L13 16V3H16M18.81 12.81L17 11H22V16L20.21 14.21L13 21.36L9.53 18.34L5.75 22H3L9.47 15.66L13 18.64" fill="black"/>
</g>
<defs>
<filter id="filter0_d_0_1" x="-17" y="-19" width="220" height="64" filterUnits="userSpaceOnUse" color-interpolation-filters="sRGB">
<feFlood flood-opacity="0" result="BackgroundImageFix"/>
<feColorMatrix in="SourceAlpha" type="matrix" values="0 0 0 0 0 0 0 0 0 0 0 0 0 0 0 0 0 0 127 0" result="hardAlpha"/>
<feOffset dx="4" dy="4"/>
<feComposite in2="hardAlpha" operator="out"/>
<feColorMatrix type="matrix" values="0 0 0 0 0 0 0 0 0 0 0 0 0 0 0 0 0 0 1 0"/>
<feBlend mode="normal" in2="BackgroundImageFix" result="effect1_dropShadow_0_1"/>
<feBlend mode="normal" in="SourceGraphic" in2="effect1_dropShadow_0_1" result="shape"/>
</filter>
<clipPath id="clip0_0_1">
<rect width="1440" height="1024" fill="white" transform="translate(-579 -159)"/>
</clipPath>
</defs>
</svg>
