<svg width="39" height="39" viewBox="0 0 39 39" fill="none" xmlns="http://www.w3.org/2000/svg">
<rect width="39" height="39" fill="white"/>
<g clip-path="url(#clip0_0_1)">
<rect width="1440" height="1024" transform="translate(-521 -31)" fill="white"/>
<g filter="url(#filter0_d_0_1)">
<rect x="-8" y="-6" width="380" height="52" fill="white"/>
<rect x="-7" y="-5" width="378" height="50" stroke="black" stroke-width="2"/>
</g>
<g filter="url(#filter1_d_0_1)">
<rect width="36" height="36" fill="#FEC1E2"/>
<rect x="1" y="1" width="34" height="34" stroke="black" stroke-width="2"/>
<path d="M23.3333 23.2381C24.8219 21.6197 25.7336 19.4423 25.7336 17.0476C25.7336 12.0508 21.7638 8 16.8668 8C11.9698 8 8 12.0508 8 17.0476C8 22.0445 11.9698 26.0952 16.8668 26.0952C19.417 26.0952 21.7157 24.9967 23.3333 23.2381ZM23.3333 23.2381L28 28" stroke="black" stroke-width="2" stroke-linecap="round"/>
</g>
</g>
<defs>
<filter id="filter0_d_0_1" x="-8" y="-6" width="384" height="56" filterUnits="userSpaceOnUse" color-interpolation-filters="sRGB">
<feFlood flood-opacity="0" result="BackgroundImageFix"/>
<feColorMatrix in="SourceAlpha" type="matrix" values="0 0 0 0 0 0 0 0 0 0 0 0 0 0 0 0 0 0 127 0" result="hardAlpha"/>
<feOffset dx="4" dy="4"/>
<feComposite in2="hardAlpha" operator="out"/>
<feColorMatrix type="matrix" values="0 0 0 0 0 0 0 0 0 0 0 0 0 0 0 0 0 0 1 0"/>
<feBlend mode="normal" in2="BackgroundImageFix" result="effect1_dropShadow_0_1"/>
<feBlend mode="normal" in="SourceGraphic" in2="effect1_dropShadow_0_1" result="shape"/>
</filter>
<filter id="filter1_d_0_1" x="0" y="0" width="39" height="39" filterUnits="userSpaceOnUse" color-interpolation-filters="sRGB">
<feFlood flood-opacity="0" result="BackgroundImageFix"/>
<feColorMatrix in="SourceAlpha" type="matrix" values="0 0 0 0 0 0 0 0 0 0 0 0 0 0 0 0 0 0 127 0" result="hardAlpha"/>
<feOffset dx="3" dy="3"/>
<feComposite in2="hardAlpha" operator="out"/>
<feColorMatrix type="matrix" values="0 0 0 0 0 0 0 0 0 0 0 0 0 0 0 0 0 0 1 0"/>
<feBlend mode="normal" in2="BackgroundImageFix" result="effect1_dropShadow_0_1"/>
<feBlend mode="normal" in="SourceGraphic" in2="effect1_dropShadow_0_1" result="shape"/>
</filter>
<clipPath id="clip0_0_1">
<rect width="1440" height="1024" fill="white" transform="translate(-521 -31)"/>
</clipPath>
</defs>
</svg>
