<svg width="24" height="24" viewBox="0 0 24 24" fill="none" xmlns="http://www.w3.org/2000/svg">
<rect width="24" height="24" fill="white"/>
<g clip-path="url(#clip0_0_1)">
<rect width="1440" height="1024" transform="translate(-326 -156)" fill="white"/>
<g filter="url(#filter0_d_0_1)">
<rect x="-17" y="-19" width="216" height="60" fill="white"/>
<rect x="-16" y="-18" width="214" height="58" stroke="black" stroke-width="2"/>
</g>
<path d="M5 18V21.766L6.515 20.857L11.277 18H16C17.103 18 18 17.103 18 16V8C18 6.897 17.103 6 16 6H4C2.897 6 2 6.897 2 8V16C2 17.103 2.897 18 4 18H5ZM4 8H16V16H10.723L7 18.234V16H4V8Z" fill="black"/>
<path d="M20 2H8C6.897 2 6 2.897 6 4H18C19.103 4 20 4.897 20 6V14C21.103 14 22 13.103 22 12V4C22 2.897 21.103 2 20 2Z" fill="black"/>
</g>
<defs>
<filter id="filter0_d_0_1" x="-17" y="-19" width="220" height="64" filterUnits="userSpaceOnUse" color-interpolation-filters="sRGB">
<feFlood flood-opacity="0" result="BackgroundImageFix"/>
<feColorMatrix in="SourceAlpha" type="matrix" values="0 0 0 0 0 0 0 0 0 0 0 0 0 0 0 0 0 0 127 0" result="hardAlpha"/>
<feOffset dx="4" dy="4"/>
<feComposite in2="hardAlpha" operator="out"/>
<feColorMatrix type="matrix" values="0 0 0 0 0 0 0 0 0 0 0 0 0 0 0 0 0 0 1 0"/>
<feBlend mode="normal" in2="BackgroundImageFix" result="effect1_dropShadow_0_1"/>
<feBlend mode="normal" in="SourceGraphic" in2="effect1_dropShadow_0_1" result="shape"/>
</filter>
<clipPath id="clip0_0_1">
<rect width="1440" height="1024" fill="white" transform="translate(-326 -156)"/>
</clipPath>
</defs>
</svg>
